<?xml version="1.0" standalone="no"?>
<svg xmlns="http://www.w3.org/2000/svg" width="32" height="32"><rect width="32" height="32" opacity="0"></rect><g><path d="M18.66 15.94Q18.34 15.87 18.13 15.58Q17.92 15.3 17.92 14.98L17.92 8.83Q17.92 7.81 17.2 7.09Q16.48 6.37 15.46 6.37Q14.43 6.37 13.71 7.09Q12.99 7.81 12.99 8.83L12.96 19.2Q12.96 19.97 12.75 20.35Q12.54 20.74 12.1 20.82Q11.65 20.9 10.88 20.7L10.08 20.45Q9.06 20.06 8.27 19.84Q7.49 19.62 6.91 19.68Q6.37 19.71 5.97 19.97Q5.57 20.22 5.34 20.64Q5.09 21.15 5.54 21.98Q5.98 22.82 6.5 23.42L6.5 23.42L11.62 29.28Q12.45 30.18 13.63 30.18L22.72 30.21Q23.68 30.21 24.43 29.6Q25.18 28.99 25.34 28.06L27.01 19.39Q27.14 18.75 26.78 18.22Q26.43 17.7 25.79 17.54L18.66 15.94Z" fill="rgba(0,0,0,0.9019607843137255)"></path><path d="M6.94 12.48Q6.85 10.24 7.87 8.27Q8.9 6.3 10.75 5.09Q12.61 3.87 14.88 3.74Q17.15 3.65 19.12 4.67Q21.09 5.7 22.3 7.57Q23.52 9.44 23.62 11.68Q23.62 12.1 23.94 12.38Q24.26 12.67 24.67 12.64Q25.06 12.61 25.34 12.3Q25.63 12 25.6 11.58Q25.47 8.77 23.97 6.48Q22.46 4.19 20.03 2.91Q17.6 1.63 14.78 1.76Q11.97 1.89 9.68 3.41Q7.39 4.93 6.11 7.36Q4.83 9.79 4.96 12.61Q4.96 12.99 5.28 13.28Q5.6 13.57 6.02 13.54Q6.43 13.54 6.7 13.22Q6.98 12.9 6.94 12.48Z" fill="rgba(0,0,0,0.9019607843137255)"></path></g></svg>