<?xml version="1.0" standalone="no"?>
<svg xmlns="http://www.w3.org/2000/svg" width="48" height="48"><rect width="48" height="48" opacity="0"></rect><g><path d="M18.14 21.65Q17.28 22.18 16.94 23.09Q16.61 24 16.94 24.91Q17.28 25.82 18.14 26.35L35.42 36.34Q36.34 36.82 37.27 36.62Q38.21 36.43 38.86 35.69Q39.5 34.94 39.5 33.94L39.5 14.02Q39.5 13.01 38.86 12.29Q38.21 11.57 37.25 11.38Q36.29 11.18 35.42 11.66L18.14 21.65ZM10.51 35.42Q11.33 35.42 11.9 34.85Q12.48 34.27 12.48 33.41L12.48 14.35Q12.48 13.54 11.9 12.94Q11.33 12.34 10.51 12.34Q9.7 12.34 9.1 12.94Q8.5 13.54 8.5 14.35L8.5 33.41Q8.5 34.27 9.1 34.85Q9.7 35.42 10.51 35.42Z" fill="rgba(255,255,255,1)"></path></g></svg>