<?xml version="1.0" standalone="no"?>
<svg xmlns="http://www.w3.org/2000/svg" width="48" height="48"><rect width="48" height="48" opacity="0"></rect><g><path d="M12.58 11.66Q11.71 11.18 10.75 11.38Q9.79 11.57 9.14 12.29Q8.5 13.01 8.5 14.02L8.5 33.94Q8.5 34.94 9.14 35.69Q9.79 36.43 10.73 36.62Q11.66 36.82 12.58 36.34L29.81 26.35Q30.67 25.82 31.01 24.91Q31.34 24 31.01 23.09Q30.67 22.18 29.81 21.65L12.58 11.66ZM37.49 35.42Q38.3 35.42 38.9 34.85Q39.5 34.27 39.5 33.41L39.5 14.35Q39.5 13.54 38.9 12.94Q38.3 12.34 37.49 12.34Q36.67 12.34 36.1 12.94Q35.52 13.54 35.52 14.35L35.52 33.41Q35.52 34.27 36.1 34.85Q36.67 35.42 37.49 35.42Z" fill="rgba(255,255,255,1)"></path></g></svg>