<?xml version="1.0" standalone="no"?>
<svg xmlns="http://www.w3.org/2000/svg" width="48" height="48"><rect width="48" height="48" opacity="0"></rect><g><path d="M15.02 7.49Q13.97 7.49 13.22 8.23Q12.48 8.98 12.48 9.98L12.48 37.97Q12.48 39.02 13.22 39.74Q13.97 40.46 15.02 40.46Q16.03 40.46 16.78 39.74Q17.52 39.02 17.52 37.97L17.52 9.98Q17.52 8.98 16.78 8.23Q16.03 7.49 15.02 7.49ZM33.02 7.49Q31.97 7.49 31.22 8.23Q30.48 8.98 30.48 9.98L30.48 37.97Q30.48 39.02 31.22 39.74Q31.97 40.46 33.02 40.46Q34.03 40.46 34.78 39.74Q35.52 39.02 35.52 37.97L35.52 9.98Q35.52 8.98 34.78 8.23Q34.03 7.49 33.02 7.49Z" fill="rgba(255,255,255,1)"></path></g></svg>