<?xml version="1.0" standalone="no"?>
<svg xmlns="http://www.w3.org/2000/svg" width="48" height="48"><rect width="48" height="48" opacity="0"></rect><g><path d="M24 45.98Q29.95 45.98 35.02 43.03Q40.08 40.08 43.03 35.02Q45.98 29.95 45.98 24Q45.98 18.05 43.03 12.98Q40.08 7.92 35.02 4.97Q29.95 2.02 24 2.02Q18.05 2.02 12.98 4.97Q7.92 7.92 4.97 12.98Q2.02 18.05 2.02 24Q2.02 29.95 4.97 35.02Q7.92 40.08 12.98 43.03Q18.05 45.98 24 45.98ZM24 4.99Q29.14 4.99 33.5 7.56Q37.87 10.13 40.44 14.5Q43.01 18.86 43.01 24Q43.01 29.14 40.44 33.5Q37.87 37.87 33.5 40.44Q29.14 43.01 24 43.01Q18.86 43.01 14.5 40.44Q10.13 37.87 7.56 33.5Q4.99 29.14 4.99 24Q4.99 18.86 7.56 14.5Q10.13 10.13 14.5 7.56Q18.86 4.99 24 4.99Z" fill="rgba(255,255,255,1)"></path><path d="M24 17.57Q22.27 17.57 20.81 18.43Q19.34 19.3 18.48 20.78Q17.62 22.27 17.62 24Q17.62 25.73 18.48 27.22Q19.34 28.7 20.81 29.57Q22.27 30.43 24 30.43Q25.73 30.43 27.19 29.57Q28.66 28.7 29.52 27.22Q30.38 25.73 30.38 24Q30.38 22.27 29.52 20.78Q28.66 19.3 27.19 18.43Q25.73 17.57 24 17.57Z" fill="rgba(255,255,255,1)"></path></g></svg>